{
	"asset":{
		"generator":"Khronos glTF Blender I/O v4.4.56",
		"version":"2.0"
	},
	"extensionsUsed":[
		"KHR_lights_punctual"
	],
	"extensionsRequired":[
		"KHR_lights_punctual"
	],
	"extensions":{
		"KHR_lights_punctual":{
			"lights":[
				{
					"color":[
						1,
						1,
						1
					],
					"intensity":683,
					"type":"directional",
					"name":"Sun"
				}
			]
		}
	},
	"scene":0,
	"scenes":[
		{
			"name":"Scene",
			"nodes":[
				0,
				43,
				44
			]
		}
	],
	"nodes":[
		{
			"mesh":0,
			"name":"Scale Reference",
			"scale":[
				0.4000000059604645,
				1,
				0.4000000059604645
			],
			"translation":[
				0,
				1,
				0
			]
		},
		{
			"name":"Pinky3.R",
			"rotation":[
				-0.01410697028040886,
				-0.0004189442843198776,
				-0.03174581751227379,
				0.9993963241577148
			],
			"scale":[
				0.9999999403953552,
				1.0000001192092896,
				1
			],
			"translation":[
				-2.2351741790771484e-08,
				0.40170764923095703,
				4.2351894080638885e-07
			]
		},
		{
			"children":[
				1
			],
			"name":"Pinky2.R",
			"rotation":[
				-0.157796248793602,
				-0.02016889490187168,
				0.021864160895347595,
				0.9870235323905945
			],
			"scale":[
				0.9999998807907104,
				0.9999998807907104,
				0.9999999403953552
			],
			"translation":[
				-1.043081283569336e-07,
				0.44830772280693054,
				-2.9918737709522247e-07
			]
		},
		{
			"children":[
				2
			],
			"name":"Pinky1.R",
			"rotation":[
				0.15104183554649353,
				0.025068210437893867,
				-0.0681167021393776,
				0.9858590960502625
			],
			"scale":[
				1,
				0.9999999403953552,
				1.0000001192092896
			],
			"translation":[
				0.7027028799057007,
				1.0854902267456055,
				0.07711315155029297
			]
		},
		{
			"name":"Ring3.R",
			"rotation":[
				-0.06643551588058472,
				0.00833035260438919,
				-0.009160836227238178,
				0.9977138638496399
			],
			"translation":[
				-2.60770320892334e-08,
				0.47210851311683655,
				-8.16071406006813e-08
			]
		},
		{
			"children":[
				4
			],
			"name":"Ring2.R",
			"rotation":[
				-0.06424782425165176,
				-0.00564350513741374,
				-0.027280986309051514,
				0.997545063495636
			],
			"translation":[
				1.4901161193847656e-08,
				0.5719555020332336,
				4.079192876815796e-07
			]
		},
		{
			"children":[
				5
			],
			"name":"Ring1.R",
			"rotation":[
				0.08299466967582703,
				0.004494955763220787,
				-0.014609234407544136,
				0.9964327812194824
			],
			"scale":[
				0.9999999403953552,
				1,
				1
			],
			"translation":[
				0.28425854444503784,
				1.1588120460510254,
				0.1085820198059082
			]
		},
		{
			"name":"Middle3.R",
			"rotation":[
				-0.10355716198682785,
				-0.005958891473710537,
				-0.00426228903234005,
				0.994596540927887
			],
			"scale":[
				0.9999998211860657,
				1,
				1.0000001192092896
			],
			"translation":[
				5.4016709327697754e-08,
				0.5160157680511475,
				-8.649658411741257e-07
			]
		},
		{
			"children":[
				7
			],
			"name":"Middle2.R",
			"rotation":[
				-0.14145083725452423,
				-0.0014727688394486904,
				-0.015488342382013798,
				0.989823043346405
			],
			"scale":[
				0.9999999403953552,
				1.0000001192092896,
				1.0000001192092896
			],
			"translation":[
				1.387670636177063e-07,
				0.6157279014587402,
				-8.810311555862427e-07
			]
		},
		{
			"children":[
				8
			],
			"name":"Middle1.R",
			"rotation":[
				0.11113826185464859,
				0.0017028485890477896,
				0.02127905748784542,
				0.9935756921768188
			],
			"scale":[
				0.9999998807907104,
				1,
				0.9999999403953552
			],
			"translation":[
				-0.11667150259017944,
				1.1574840545654297,
				0.09180736541748047
			]
		},
		{
			"name":"Index3.R",
			"rotation":[
				0.012741394340991974,
				-0.03309325873851776,
				-0.023373417556285858,
				0.9990976452827454
			],
			"scale":[
				1.0000001192092896,
				1,
				0.9999998807907104
			],
			"translation":[
				-2.2351741790771484e-08,
				0.48668062686920166,
				1.9185245037078857e-07
			]
		},
		{
			"children":[
				10
			],
			"name":"Index2.R",
			"rotation":[
				-0.1893700510263443,
				-0.029177915304899216,
				-0.013478567823767662,
				0.9813796281814575
			],
			"scale":[
				0.9999998807907104,
				0.9999998807907104,
				0.9999999403953552
			],
			"translation":[
				-2.9802322387695312e-08,
				0.6156729459762573,
				2.384185791015625e-07
			]
		},
		{
			"children":[
				11
			],
			"name":"Index1.R",
			"rotation":[
				0.15374913811683655,
				0.04274510219693184,
				0.07495465874671936,
				0.9843352437019348
			],
			"scale":[
				0.9999999403953552,
				0.9999999403953552,
				1
			],
			"translation":[
				-0.4377744793891907,
				1.1190128326416016,
				0.047966960817575455
			]
		},
		{
			"name":"Thumb3.R",
			"rotation":[
				-0.05919589474797249,
				-0.013181563466787338,
				0.048802752047777176,
				0.9969655871391296
			],
			"scale":[
				0.9999999403953552,
				0.9999999403953552,
				1.0000001192092896
			],
			"translation":[
				0,
				0.5639187097549438,
				-8.642673492431641e-07
			]
		},
		{
			"children":[
				13
			],
			"name":"Thumb2.R",
			"rotation":[
				0.11652038246393204,
				0.007910380139946938,
				-0.19925940036773682,
				0.9729625582695007
			],
			"translation":[
				3.5762786865234375e-07,
				0.2071276307106018,
				-1.430511474609375e-06
			]
		},
		{
			"children":[
				14
			],
			"name":"Thumb1.R",
			"rotation":[
				-0.3734965920448303,
				0.006055270787328482,
				0.5946443676948547,
				0.711942195892334
			],
			"scale":[
				0.9999998807907104,
				1,
				1.0000001192092896
			],
			"translation":[
				-0.3549397587776184,
				0.4069395363330841,
				-0.005641935393214226
			]
		},
		{
			"children":[
				3,
				6,
				9,
				12,
				15
			],
			"name":"Palm.R",
			"rotation":[
				-3.4742264620746255e-11,
				-1.1725589943445414e-10,
				-0.02323991432785988,
				0.9997299313545227
			],
			"scale":[
				0.9999999403953552,
				0.9999999403953552,
				1
			],
			"translation":[
				-2.9802322387695312e-08,
				2.847332000732422,
				8.17367507011113e-10
			]
		},
		{
			"children":[
				16
			],
			"name":"Forearm.R",
			"rotation":[
				2.087625627922307e-10,
				5.856210516519411e-10,
				0.04695641249418259,
				0.9988969564437866
			],
			"scale":[
				0.9999998807907104,
				1,
				1
			],
			"translation":[
				1.2388721870593145e-07,
				2.7886171340942383,
				3.2866989130297952e-09
			]
		},
		{
			"children":[
				17
			],
			"name":"Bicep.R",
			"rotation":[
				-0.7069076895713806,
				-0.016779275611042976,
				-0.01677927002310753,
				0.7069076895713806
			],
			"scale":[
				1,
				0.9999999403953552,
				1
			],
			"translation":[
				-0.9008552432060242,
				0.017927169799804688,
				-0.9680215120315552
			]
		},
		{
			"name":"Pinky3.L",
			"rotation":[
				-0.05457419157028198,
				-0.0004742817545775324,
				-0.0062299445271492004,
				0.9984901547431946
			],
			"scale":[
				1.0000001192092896,
				0.9999998807907104,
				0.9999999403953552
			],
			"translation":[
				2.8446720534702763e-09,
				0.2279956191778183,
				-4.759058356285095e-07
			]
		},
		{
			"children":[
				19
			],
			"name":"Pinky2.L",
			"rotation":[
				0.029070230200886726,
				-0.001168171176686883,
				-0.040132805705070496,
				0.9987707138061523
			],
			"scale":[
				0.9999998211860657,
				1,
				0.9999997615814209
			],
			"translation":[
				-9.492741526173631e-08,
				0.12712545692920685,
				-4.71911874910802e-07
			]
		},
		{
			"children":[
				20
			],
			"name":"Pinky1.L",
			"rotation":[
				-1.3188619640835952e-10,
				1.4527282710119493e-09,
				0.09041342884302139,
				0.9959043264389038
			],
			"scale":[
				0.9999999403953552,
				1,
				1
			],
			"translation":[
				-0.2927039563655853,
				0.8170108199119568,
				0.07760810852050781
			]
		},
		{
			"name":"Ring3.L",
			"rotation":[
				-0.05732205510139465,
				-9.592949936632067e-06,
				0.0025068901013582945,
				0.998352587223053
			],
			"scale":[
				1,
				0.9999998211860657,
				0.9999999403953552
			],
			"translation":[
				3.0121327654342167e-10,
				0.31816691160202026,
				2.691522240638733e-07
			]
		},
		{
			"children":[
				22
			],
			"name":"Ring2.L",
			"rotation":[
				0.02675100788474083,
				-0.0001727620547171682,
				-0.0064536225982010365,
				0.9996212720870972
			],
			"scale":[
				1,
				1.0000001192092896,
				1.0000001192092896
			],
			"translation":[
				-2.9802322387695312e-08,
				0.231769397854805,
				-1.7130270535403724e-09
			]
		},
		{
			"children":[
				23
			],
			"name":"Ring1.L",
			"rotation":[
				7.591423149821974e-12,
				-3.1816077550317345e-10,
				0.023853521794080734,
				0.9997154474258423
			],
			"translation":[
				-0.0934927761554718,
				0.8514932990074158,
				0.098052978515625
			]
		},
		{
			"name":"Middle3.L",
			"rotation":[
				-0.04691921919584274,
				1.7725853467709385e-05,
				-0.0036150661762803793,
				0.9988921880722046
			],
			"scale":[
				1,
				1.0000001192092896,
				0.9999999403953552
			],
			"translation":[
				1.0285293683409691e-07,
				0.3617410957813263,
				-1.559033989906311e-06
			]
		},
		{
			"children":[
				25
			],
			"name":"Middle2.L",
			"rotation":[
				0.020031031221151352,
				9.479458094574511e-05,
				0.004365506116300821,
				0.999789834022522
			],
			"scale":[
				1.0000001192092896,
				1,
				1.0000001192092896
			],
			"translation":[
				-1.123407855629921e-08,
				0.28416743874549866,
				1.391163095831871e-07
			]
		},
		{
			"children":[
				26
			],
			"name":"Middle1.L",
			"rotation":[
				0.007880447432398796,
				-0.00015172244457062334,
				-0.020471038296818733,
				0.9997594356536865
			],
			"translation":[
				0.09801086783409119,
				0.8554829955101013,
				0.07154226303100586
			]
		},
		{
			"name":"Index3.L",
			"rotation":[
				-0.08056565374135971,
				0.00015543214976787567,
				-0.012450894340872765,
				0.9966715574264526
			],
			"scale":[
				0.9999999403953552,
				0.9999999403953552,
				0.9999997615814209
			],
			"translation":[
				-8.12578946352005e-08,
				0.3162972331047058,
				-6.039626896381378e-07
			]
		},
		{
			"children":[
				28
			],
			"name":"Index2.L",
			"rotation":[
				0.0343240350484848,
				0.00016746341134421527,
				0.004758922383189201,
				0.9993994235992432
			],
			"scale":[
				0.9999999403953552,
				1,
				0.9999999403953552
			],
			"translation":[
				1.4435499906539917e-08,
				0.27747124433517456,
				1.05355866253376e-08
			]
		},
		{
			"children":[
				29
			],
			"name":"Index1.L",
			"rotation":[
				0.008076611906290054,
				-2.4874023438314907e-05,
				-0.03957531228661537,
				0.9991839528083801
			],
			"translation":[
				0.2763027846813202,
				0.8449949622154236,
				0.06683349609375
			]
		},
		{
			"name":"Thumb3.L",
			"rotation":[
				0.1516849845647812,
				-0.012455299496650696,
				-0.10717901587486267,
				0.9825218319892883
			],
			"scale":[
				1.0000001192092896,
				1,
				1.0000001192092896
			],
			"translation":[
				5.960464477539063e-08,
				0.2553936243057251,
				-8.046627044677734e-07
			]
		},
		{
			"children":[
				31
			],
			"name":"Thumb2.L",
			"rotation":[
				0.11516539007425308,
				-0.010989857837557793,
				0.2212672233581543,
				0.9683269262313843
			],
			"scale":[
				1.0000001192092896,
				1,
				0.9999999403953552
			],
			"translation":[
				5.960464477539063e-08,
				0.17596912384033203,
				2.384185791015625e-07
			]
		},
		{
			"children":[
				32
			],
			"name":"Thumb1.L",
			"rotation":[
				-0.41283705830574036,
				0.023203518241643906,
				-0.5269639492034912,
				0.7425201535224915
			],
			"scale":[
				1.0000001192092896,
				0.9999999403953552,
				1
			],
			"translation":[
				0.37281307578086853,
				0.3684176504611969,
				-0.07100629806518555
			]
		},
		{
			"children":[
				21,
				24,
				27,
				30,
				33
			],
			"name":"Palm.L",
			"rotation":[
				2.119220771090724e-11,
				-3.106466472946323e-10,
				0.023239905014634132,
				0.9997299313545227
			],
			"scale":[
				0.9999998807907104,
				0.9999998807907104,
				1
			],
			"translation":[
				-8.940698137394065e-08,
				2.8473312854766846,
				4.7648049417148286e-07
			]
		},
		{
			"children":[
				34
			],
			"name":"Forearm.L",
			"rotation":[
				2.9474017670949593e-10,
				-6.8704606448477534e-09,
				-0.04695640876889229,
				0.9988969564437866
			],
			"translation":[
				-6.867470858651359e-08,
				2.7886176109313965,
				1.2441529584350519e-08
			]
		},
		{
			"children":[
				35
			],
			"name":"Bicep.L",
			"rotation":[
				-0.016779236495494843,
				-0.7069076895713806,
				-0.7069076895713806,
				0.016779247671365738
			],
			"scale":[
				0.9999999403953552,
				0.9999999403953552,
				1
			],
			"translation":[
				-0.9008553624153137,
				0.017927169799804688,
				0.9680213928222656
			]
		},
		{
			"name":"IK Arm Pole.R",
			"rotation":[
				-0.5,
				-0.5,
				-0.5,
				0.5
			],
			"scale":[
				1,
				0.9999999403953552,
				1
			],
			"translation":[
				1.9476583003997803,
				0.017927169799804688,
				-3.7534987926483154
			]
		},
		{
			"name":"IK Arm Target.R",
			"rotation":[
				-0.7071067690849304,
				0,
				0,
				0.7071067690849304
			],
			"translation":[
				-0.9008552432060242,
				0.017927169799804688,
				-6.59775447845459
			]
		},
		{
			"name":"IK Arm Pole.L",
			"rotation":[
				-0.5,
				-0.5,
				-0.5,
				0.5
			],
			"scale":[
				1,
				0.9999999403953552,
				1
			],
			"translation":[
				1.9476580619812012,
				0.017927169799804688,
				3.7534987926483154
			]
		},
		{
			"name":"IK Arm Target.L",
			"rotation":[
				3.0908619663705394e-08,
				0.7071067690849304,
				0.7071067690849304,
				3.0908619663705394e-08
			],
			"translation":[
				-0.9008558392524719,
				0.017927169799804688,
				6.59775447845459
			]
		},
		{
			"children":[
				18,
				36,
				37,
				38,
				39,
				40
			],
			"name":"Root",
			"rotation":[
				0,
				0.7071067690849304,
				0,
				0.7071067690849304
			],
			"scale":[
				1,
				0.9999999403953552,
				1
			],
			"translation":[
				0,
				6.543107986450195,
				0
			]
		},
		{
			"mesh":1,
			"name":"Arms",
			"skin":0
		},
		{
			"children":[
				42,
				41
			],
			"name":"Human FPV",
			"scale":[
				0.19970989227294922,
				0.19970989227294922,
				0.19970989227294922
			]
		},
		{
			"extensions":{
				"KHR_lights_punctual":{
					"light":0
				}
			},
			"name":"Sun",
			"rotation":[
				-0.7071068286895752,
				0,
				0,
				0.7071068286895752
			],
			"translation":[
				0,
				3,
				0
			]
		}
	],
	"materials":[
		{
			"doubleSided":true,
			"name":"Jacket Sleeve",
			"pbrMetallicRoughness":{
				"metallicFactor":0,
				"roughnessFactor":0.5
			}
		},
		{
			"doubleSided":true,
			"name":"Skin",
			"pbrMetallicRoughness":{
				"metallicFactor":0,
				"roughnessFactor":0.5
			}
		},
		{
			"doubleSided":true,
			"name":"Gauntlet",
			"pbrMetallicRoughness":{
				"metallicFactor":0,
				"roughnessFactor":0.5
			}
		},
		{
			"name":"Outline"
		}
	],
	"meshes":[
		{
			"name":"Cube.001",
			"primitives":[
				{
					"attributes":{
						"POSITION":0,
						"NORMAL":1,
						"TEXCOORD_0":2,
						"TANGENT":3
					},
					"indices":4
				}
			]
		},
		{
			"name":"Cube.004",
			"primitives":[
				{
					"attributes":{
						"POSITION":5,
						"NORMAL":6,
						"TEXCOORD_0":7,
						"JOINTS_0":8,
						"JOINTS_1":9,
						"WEIGHTS_0":10,
						"WEIGHTS_1":11
					},
					"indices":12,
					"material":0
				},
				{
					"attributes":{
						"POSITION":13,
						"NORMAL":14,
						"TEXCOORD_0":15,
						"JOINTS_0":16,
						"JOINTS_1":17,
						"WEIGHTS_0":18,
						"WEIGHTS_1":19
					},
					"indices":20,
					"material":1
				},
				{
					"attributes":{
						"POSITION":21,
						"NORMAL":22,
						"TEXCOORD_0":23,
						"JOINTS_0":24,
						"JOINTS_1":25,
						"WEIGHTS_0":26,
						"WEIGHTS_1":27
					},
					"indices":28,
					"material":2
				},
				{
					"attributes":{
						"POSITION":29,
						"NORMAL":30,
						"TEXCOORD_0":31,
						"JOINTS_0":32,
						"JOINTS_1":33,
						"WEIGHTS_0":34,
						"WEIGHTS_1":35
					},
					"indices":36,
					"material":3
				}
			]
		}
	],
	"skins":[
		{
			"inverseBindMatrices":37,
			"joints":[
				41,
				18,
				17,
				16,
				3,
				2,
				1,
				6,
				5,
				4,
				9,
				8,
				7,
				12,
				11,
				10,
				15,
				14,
				13,
				36,
				35,
				34,
				21,
				20,
				19,
				24,
				23,
				22,
				27,
				26,
				25,
				30,
				29,
				28,
				33,
				32,
				31,
				37,
				38,
				39,
				40
			],
			"name":"Human FPV"
		}
	],
	"accessors":[
		{
			"bufferView":0,
			"componentType":5126,
			"count":24,
			"max":[
				0.9999999403953552,
				1,
				0.9999999403953552
			],
			"min":[
				-0.9999999403953552,
				-1,
				-0.9999999403953552
			],
			"type":"VEC3"
		},
		{
			"bufferView":1,
			"componentType":5126,
			"count":24,
			"type":"VEC3"
		},
		{
			"bufferView":2,
			"componentType":5126,
			"count":24,
			"type":"VEC2"
		},
		{
			"bufferView":3,
			"componentType":5126,
			"count":24,
			"type":"VEC4"
		},
		{
			"bufferView":4,
			"componentType":5123,
			"count":36,
			"type":"SCALAR"
		},
		{
			"bufferView":5,
			"componentType":5126,
			"count":586,
			"max":[
				1.3275096416473389,
				1.4582278728485107,
				0.38276636600494385
			],
			"min":[
				0.12300550192594528,
				1.173030972480774,
				-0.018362944945693016
			],
			"type":"VEC3"
		},
		{
			"bufferView":6,
			"componentType":5126,
			"count":586,
			"type":"VEC3"
		},
		{
			"bufferView":7,
			"componentType":5126,
			"count":586,
			"type":"VEC2"
		},
		{
			"bufferView":8,
			"componentType":5121,
			"count":586,
			"type":"VEC4"
		},
		{
			"bufferView":9,
			"componentType":5121,
			"count":586,
			"type":"VEC4"
		},
		{
			"bufferView":10,
			"componentType":5126,
			"count":586,
			"type":"VEC4"
		},
		{
			"bufferView":11,
			"componentType":5126,
			"count":586,
			"type":"VEC4"
		},
		{
			"bufferView":12,
			"componentType":5123,
			"count":924,
			"type":"SCALAR"
		},
		{
			"bufferView":13,
			"componentType":5126,
			"count":3008,
			"max":[
				1.6876468658447266,
				1.4108786582946777,
				0.35107359290122986
			],
			"min":[
				-0.9395695328712463,
				1.216246485710144,
				0.03475061058998108
			],
			"type":"VEC3"
		},
		{
			"bufferView":14,
			"componentType":5126,
			"count":3008,
			"type":"VEC3"
		},
		{
			"bufferView":15,
			"componentType":5126,
			"count":3008,
			"type":"VEC2"
		},
		{
			"bufferView":16,
			"componentType":5121,
			"count":3008,
			"type":"VEC4"
		},
		{
			"bufferView":17,
			"componentType":5121,
			"count":3008,
			"type":"VEC4"
		},
		{
			"bufferView":18,
			"componentType":5126,
			"count":3008,
			"type":"VEC4"
		},
		{
			"bufferView":19,
			"componentType":5126,
			"count":3008,
			"type":"VEC4"
		},
		{
			"bufferView":20,
			"componentType":5123,
			"count":4572,
			"type":"SCALAR"
		},
		{
			"bufferView":21,
			"componentType":5126,
			"count":9597,
			"max":[
				-0.8858305215835571,
				1.465056300163269,
				0.5220798850059509
			],
			"min":[
				-1.8883477449417114,
				1.1124085187911987,
				-0.041758835315704346
			],
			"type":"VEC3"
		},
		{
			"bufferView":22,
			"componentType":5126,
			"count":9597,
			"type":"VEC3"
		},
		{
			"bufferView":23,
			"componentType":5126,
			"count":9597,
			"type":"VEC2"
		},
		{
			"bufferView":24,
			"componentType":5121,
			"count":9597,
			"type":"VEC4"
		},
		{
			"bufferView":25,
			"componentType":5121,
			"count":9597,
			"type":"VEC4"
		},
		{
			"bufferView":26,
			"componentType":5126,
			"count":9597,
			"type":"VEC4"
		},
		{
			"bufferView":27,
			"componentType":5126,
			"count":9597,
			"type":"VEC4"
		},
		{
			"bufferView":28,
			"componentType":5123,
			"count":13944,
			"type":"SCALAR"
		},
		{
			"bufferView":29,
			"componentType":5126,
			"count":13584,
			"max":[
				1.700324296951294,
				1.4780819416046143,
				0.5369384288787842
			],
			"min":[
				-1.9009153842926025,
				1.0970598459243774,
				-0.05720876529812813
			],
			"type":"VEC3"
		},
		{
			"bufferView":30,
			"componentType":5126,
			"count":13584,
			"type":"VEC3"
		},
		{
			"bufferView":31,
			"componentType":5126,
			"count":13584,
			"type":"VEC2"
		},
		{
			"bufferView":32,
			"componentType":5121,
			"count":13584,
			"type":"VEC4"
		},
		{
			"bufferView":33,
			"componentType":5121,
			"count":13584,
			"type":"VEC4"
		},
		{
			"bufferView":34,
			"componentType":5126,
			"count":13584,
			"type":"VEC4"
		},
		{
			"bufferView":35,
			"componentType":5126,
			"count":13584,
			"type":"VEC4"
		},
		{
			"bufferView":36,
			"componentType":5123,
			"count":19440,
			"type":"SCALAR"
		},
		{
			"bufferView":37,
			"componentType":5126,
			"count":41,
			"type":"MAT4"
		}
	],
	"bufferViews":[
		{
			"buffer":0,
			"byteLength":288,
			"byteOffset":0,
			"target":34962
		},
		{
			"buffer":0,
			"byteLength":288,
			"byteOffset":288,
			"target":34962
		},
		{
			"buffer":0,
			"byteLength":192,
			"byteOffset":576,
			"target":34962
		},
		{
			"buffer":0,
			"byteLength":384,
			"byteOffset":768,
			"target":34962
		},
		{
			"buffer":0,
			"byteLength":72,
			"byteOffset":1152,
			"target":34963
		},
		{
			"buffer":0,
			"byteLength":7032,
			"byteOffset":1224,
			"target":34962
		},
		{
			"buffer":0,
			"byteLength":7032,
			"byteOffset":8256,
			"target":34962
		},
		{
			"buffer":0,
			"byteLength":4688,
			"byteOffset":15288,
			"target":34962
		},
		{
			"buffer":0,
			"byteLength":2344,
			"byteOffset":19976,
			"target":34962
		},
		{
			"buffer":0,
			"byteLength":2344,
			"byteOffset":22320,
			"target":34962
		},
		{
			"buffer":0,
			"byteLength":9376,
			"byteOffset":24664,
			"target":34962
		},
		{
			"buffer":0,
			"byteLength":9376,
			"byteOffset":34040,
			"target":34962
		},
		{
			"buffer":0,
			"byteLength":1848,
			"byteOffset":43416,
			"target":34963
		},
		{
			"buffer":0,
			"byteLength":36096,
			"byteOffset":45264,
			"target":34962
		},
		{
			"buffer":0,
			"byteLength":36096,
			"byteOffset":81360,
			"target":34962
		},
		{
			"buffer":0,
			"byteLength":24064,
			"byteOffset":117456,
			"target":34962
		},
		{
			"buffer":0,
			"byteLength":12032,
			"byteOffset":141520,
			"target":34962
		},
		{
			"buffer":0,
			"byteLength":12032,
			"byteOffset":153552,
			"target":34962
		},
		{
			"buffer":0,
			"byteLength":48128,
			"byteOffset":165584,
			"target":34962
		},
		{
			"buffer":0,
			"byteLength":48128,
			"byteOffset":213712,
			"target":34962
		},
		{
			"buffer":0,
			"byteLength":9144,
			"byteOffset":261840,
			"target":34963
		},
		{
			"buffer":0,
			"byteLength":115164,
			"byteOffset":270984,
			"target":34962
		},
		{
			"buffer":0,
			"byteLength":115164,
			"byteOffset":386148,
			"target":34962
		},
		{
			"buffer":0,
			"byteLength":76776,
			"byteOffset":501312,
			"target":34962
		},
		{
			"buffer":0,
			"byteLength":38388,
			"byteOffset":578088,
			"target":34962
		},
		{
			"buffer":0,
			"byteLength":38388,
			"byteOffset":616476,
			"target":34962
		},
		{
			"buffer":0,
			"byteLength":153552,
			"byteOffset":654864,
			"target":34962
		},
		{
			"buffer":0,
			"byteLength":153552,
			"byteOffset":808416,
			"target":34962
		},
		{
			"buffer":0,
			"byteLength":27888,
			"byteOffset":961968,
			"target":34963
		},
		{
			"buffer":0,
			"byteLength":163008,
			"byteOffset":989856,
			"target":34962
		},
		{
			"buffer":0,
			"byteLength":163008,
			"byteOffset":1152864,
			"target":34962
		},
		{
			"buffer":0,
			"byteLength":108672,
			"byteOffset":1315872,
			"target":34962
		},
		{
			"buffer":0,
			"byteLength":54336,
			"byteOffset":1424544,
			"target":34962
		},
		{
			"buffer":0,
			"byteLength":54336,
			"byteOffset":1478880,
			"target":34962
		},
		{
			"buffer":0,
			"byteLength":217344,
			"byteOffset":1533216,
			"target":34962
		},
		{
			"buffer":0,
			"byteLength":217344,
			"byteOffset":1750560,
			"target":34962
		},
		{
			"buffer":0,
			"byteLength":38880,
			"byteOffset":1967904,
			"target":34963
		},
		{
			"buffer":0,
			"byteLength":2624,
			"byteOffset":2006784
		}
	],
	"buffers":[
		{
			"byteLength":2009408,
			"uri":"Arms-f64f4e5d1e3bfc61f563f5058940bd1f.bin"
		}
	]
}
