{
	"asset":{
		"generator":"Khronos glTF Blender I/O v4.4.56",
		"version":"2.0"
	},
	"scene":0,
	"scenes":[
		{
			"name":"Scene",
			"nodes":[
				0
			]
		}
	],
	"nodes":[
		{
			"mesh":0,
			"name":"Bullet"
		}
	],
	"materials":[
		{
			"doubleSided":true,
			"name":"BaseColor",
			"pbrMetallicRoughness":{
				"baseColorFactor":[
					0.8008996248245239,
					0.09828892350196838,
					0.02144196256995201,
					1
				],
				"metallicFactor":0.7322834730148315
			}
		},
		{
			"emissiveFactor":[
				1,
				0,
				0.002408684231340885
			],
			"name":"Outline",
			"pbrMetallicRoughness":{
				"baseColorFactor":[
					0,
					0,
					0,
					1
				]
			}
		}
	],
	"meshes":[
		{
			"name":"Sphere",
			"primitives":[
				{
					"attributes":{
						"POSITION":0,
						"NORMAL":1,
						"TEXCOORD_0":2,
						"TANGENT":3
					},
					"indices":4,
					"material":0
				},
				{
					"attributes":{
						"POSITION":5,
						"NORMAL":6,
						"TEXCOORD_0":7,
						"TANGENT":8
					},
					"indices":9,
					"material":1
				}
			]
		}
	],
	"accessors":[
		{
			"bufferView":0,
			"componentType":5126,
			"count":480,
			"max":[
				1,
				1,
				1
			],
			"min":[
				-0.9999999403953552,
				-1,
				-1
			],
			"type":"VEC3"
		},
		{
			"bufferView":1,
			"componentType":5126,
			"count":480,
			"type":"VEC3"
		},
		{
			"bufferView":2,
			"componentType":5126,
			"count":480,
			"type":"VEC2"
		},
		{
			"bufferView":3,
			"componentType":5126,
			"count":480,
			"type":"VEC4"
		},
		{
			"bufferView":4,
			"componentType":5123,
			"count":672,
			"type":"SCALAR"
		},
		{
			"bufferView":5,
			"componentType":5126,
			"count":480,
			"max":[
				1.100000023841858,
				1.100000023841858,
				1.100000023841858
			],
			"min":[
				-1.0999999046325684,
				-1.100000023841858,
				-1.100000023841858
			],
			"type":"VEC3"
		},
		{
			"bufferView":6,
			"componentType":5126,
			"count":480,
			"type":"VEC3"
		},
		{
			"bufferView":7,
			"componentType":5126,
			"count":480,
			"type":"VEC2"
		},
		{
			"bufferView":8,
			"componentType":5126,
			"count":480,
			"type":"VEC4"
		},
		{
			"bufferView":9,
			"componentType":5123,
			"count":672,
			"type":"SCALAR"
		}
	],
	"bufferViews":[
		{
			"buffer":0,
			"byteLength":5760,
			"byteOffset":0,
			"target":34962
		},
		{
			"buffer":0,
			"byteLength":5760,
			"byteOffset":5760,
			"target":34962
		},
		{
			"buffer":0,
			"byteLength":3840,
			"byteOffset":11520,
			"target":34962
		},
		{
			"buffer":0,
			"byteLength":7680,
			"byteOffset":15360,
			"target":34962
		},
		{
			"buffer":0,
			"byteLength":1344,
			"byteOffset":23040,
			"target":34963
		},
		{
			"buffer":0,
			"byteLength":5760,
			"byteOffset":24384,
			"target":34962
		},
		{
			"buffer":0,
			"byteLength":5760,
			"byteOffset":30144,
			"target":34962
		},
		{
			"buffer":0,
			"byteLength":3840,
			"byteOffset":35904,
			"target":34962
		},
		{
			"buffer":0,
			"byteLength":7680,
			"byteOffset":39744,
			"target":34962
		},
		{
			"buffer":0,
			"byteLength":1344,
			"byteOffset":47424,
			"target":34963
		}
	],
	"buffers":[
		{
			"byteLength":48768,
			"uri":"Bullet-6f5d62c2e4e541535704110f98ec6def.bin"
		}
	]
}
